<svg id="visual" viewBox="0 0 900 600" width="900" height="600" xmlns="http://www.w3.org/2000/svg" xmlns:xlink="http://www.w3.org/1999/xlink" version="1.1"><g stroke-width="1" stroke-linejoin="bevel"><path d="M518.3 253L629.9 343L625.9 213Z" fill="#3a2857" stroke="#3a2857"></path><path d="M518.3 253L493.3 394L629.9 343Z" fill="#2e1f46" stroke="#2e1f46"></path><path d="M629.9 343L736.4 252L625.9 213Z" fill="#3e2c5c" stroke="#3e2c5c"></path><path d="M493.3 394L661.9 459L629.9 343Z" fill="#4e3973" stroke="#4e3973"></path><path d="M629.9 343L794.4 378L736.4 252Z" fill="#3a2857" stroke="#3a2857"></path><path d="M667.9 83L490.3 97L625.9 213Z" fill="#463268" stroke="#463268"></path><path d="M625.9 213L490.3 97L518.3 253Z" fill="#2e1f46" stroke="#2e1f46"></path><path d="M518.3 253L370.7 376L493.3 394Z" fill="#4a356d" stroke="#4a356d"></path><path d="M736.4 252L667.9 83L625.9 213Z" fill="#422f62" stroke="#422f62"></path><path d="M490.3 97L383.7 229L518.3 253Z" fill="#422f62" stroke="#422f62"></path><path d="M747.4 444L794.4 378L629.9 343Z" fill="#3e2c5c" stroke="#3e2c5c"></path><path d="M736.4 252L761.4 91L667.9 83Z" fill="#32224b" stroke="#32224b"></path><path d="M661.9 459L747.4 444L629.9 343Z" fill="#573f7f" stroke="#573f7f"></path><path d="M387.7 467L505.3 497L493.3 394Z" fill="#362551" stroke="#362551"></path><path d="M493.3 394L505.3 497L661.9 459Z" fill="#2e1f46" stroke="#2e1f46"></path><path d="M661.9 459L790.4 600L747.4 444Z" fill="#362551" stroke="#362551"></path><path d="M383.7 229L370.7 376L518.3 253Z" fill="#573f7f" stroke="#573f7f"></path><path d="M900 243L761.4 91L736.4 252Z" fill="#533c79" stroke="#533c79"></path><path d="M490.3 97L373.7 135L383.7 229Z" fill="#4a356d" stroke="#4a356d"></path><path d="M383.7 229L286.1 361L370.7 376Z" fill="#4e3973" stroke="#4e3973"></path><path d="M370.7 376L387.7 467L493.3 394Z" fill="#362551" stroke="#362551"></path><path d="M667.9 83L605.9 0L490.3 97Z" fill="#32224b" stroke="#32224b"></path><path d="M490.3 97L393.7 0L373.7 135Z" fill="#4a356d" stroke="#4a356d"></path><path d="M763.4 0L605.9 0L667.9 83Z" fill="#422f62" stroke="#422f62"></path><path d="M605.9 0L500.3 0L490.3 97Z" fill="#4a356d" stroke="#4a356d"></path><path d="M900 346L900 243L794.4 378Z" fill="#573f7f" stroke="#573f7f"></path><path d="M794.4 378L900 243L736.4 252Z" fill="#422f62" stroke="#422f62"></path><path d="M238.1 216L286.1 361L383.7 229Z" fill="#533c79" stroke="#533c79"></path><path d="M370.7 376L286.1 361L387.7 467Z" fill="#4e3973" stroke="#4e3973"></path><path d="M900 497L900 346L794.4 378Z" fill="#533c79" stroke="#533c79"></path><path d="M534.3 600L610.9 600L505.3 497Z" fill="#573f7f" stroke="#573f7f"></path><path d="M505.3 497L610.9 600L661.9 459Z" fill="#3a2857" stroke="#3a2857"></path><path d="M747.4 444L900 497L794.4 378Z" fill="#573f7f" stroke="#573f7f"></path><path d="M398.7 600L534.3 600L505.3 497Z" fill="#573f7f" stroke="#573f7f"></path><path d="M900 0L763.4 0L761.4 91Z" fill="#3e2c5c" stroke="#3e2c5c"></path><path d="M761.4 91L763.4 0L667.9 83Z" fill="#2e1f46" stroke="#2e1f46"></path><path d="M500.3 0L393.7 0L490.3 97Z" fill="#32224b" stroke="#32224b"></path><path d="M373.7 135L238.1 216L383.7 229Z" fill="#3e2c5c" stroke="#3e2c5c"></path><path d="M900 243L900 108L761.4 91Z" fill="#422f62" stroke="#422f62"></path><path d="M280.1 96L238.1 216L373.7 135Z" fill="#533c79" stroke="#533c79"></path><path d="M393.7 0L280.1 96L373.7 135Z" fill="#3a2857" stroke="#3a2857"></path><path d="M387.7 467L398.7 600L505.3 497Z" fill="#422f62" stroke="#422f62"></path><path d="M278.1 516L398.7 600L387.7 467Z" fill="#533c79" stroke="#533c79"></path><path d="M610.9 600L790.4 600L661.9 459Z" fill="#463268" stroke="#463268"></path><path d="M790.4 600L900 497L747.4 444Z" fill="#4e3973" stroke="#4e3973"></path><path d="M120.6 459L278.1 516L286.1 361Z" fill="#4e3973" stroke="#4e3973"></path><path d="M286.1 361L278.1 516L387.7 467Z" fill="#4a356d" stroke="#4a356d"></path><path d="M900 108L900 0L761.4 91Z" fill="#463268" stroke="#463268"></path><path d="M128.6 91L119.6 274L238.1 216Z" fill="#4e3973" stroke="#4e3973"></path><path d="M393.7 0L253.1 0L280.1 96Z" fill="#533c79" stroke="#533c79"></path><path d="M790.4 600L900 600L900 497Z" fill="#533c79" stroke="#533c79"></path><path d="M133.6 600L248.1 600L278.1 516Z" fill="#3a2857" stroke="#3a2857"></path><path d="M278.1 516L248.1 600L398.7 600Z" fill="#2e1f46" stroke="#2e1f46"></path><path d="M128.6 91L238.1 216L280.1 96Z" fill="#3a2857" stroke="#3a2857"></path><path d="M238.1 216L119.6 274L286.1 361Z" fill="#2e1f46" stroke="#2e1f46"></path><path d="M253.1 0L128.6 91L280.1 96Z" fill="#533c79" stroke="#533c79"></path><path d="M92.6 364L120.6 459L286.1 361Z" fill="#2e1f46" stroke="#2e1f46"></path><path d="M119.6 274L92.6 364L286.1 361Z" fill="#533c79" stroke="#533c79"></path><path d="M0 247L92.6 364L119.6 274Z" fill="#3e2c5c" stroke="#3e2c5c"></path><path d="M253.1 0L151.6 0L128.6 91Z" fill="#463268" stroke="#463268"></path><path d="M0 505L133.6 600L120.6 459Z" fill="#2e1f46" stroke="#2e1f46"></path><path d="M120.6 459L133.6 600L278.1 516Z" fill="#362551" stroke="#362551"></path><path d="M0 134L119.6 274L128.6 91Z" fill="#32224b" stroke="#32224b"></path><path d="M0 134L0 247L119.6 274Z" fill="#463268" stroke="#463268"></path><path d="M92.6 364L0 360L120.6 459Z" fill="#3a2857" stroke="#3a2857"></path><path d="M0 247L0 360L92.6 364Z" fill="#32224b" stroke="#32224b"></path><path d="M0 0L0 134L128.6 91Z" fill="#3e2c5c" stroke="#3e2c5c"></path><path d="M0 360L0 505L120.6 459Z" fill="#2e1f46" stroke="#2e1f46"></path><path d="M151.6 0L0 0L128.6 91Z" fill="#4a356d" stroke="#4a356d"></path><path d="M0 505L0 600L133.6 600Z" fill="#3e2c5c" stroke="#3e2c5c"></path></g></svg>