<svg id="visual" viewBox="0 0 900 600" width="900" height="600" xmlns="http://www.w3.org/2000/svg" xmlns:xlink="http://www.w3.org/1999/xlink" version="1.1"><g stroke-width="1" stroke-linejoin="bevel"><path d="M406 290L322 216L318 279Z" fill="#0f061a" stroke="#0f061a"></path><path d="M406 290L436 170L322 216Z" fill="#1b0d32" stroke="#1b0d32"></path><path d="M436 170L309 137L322 216Z" fill="#1b0d32" stroke="#1b0d32"></path><path d="M182 224L233 330L318 279Z" fill="#150923" stroke="#150923"></path><path d="M406 290L495 279L436 170Z" fill="#160a26" stroke="#160a26"></path><path d="M495 279L490 161L436 170Z" fill="#130820" stroke="#130820"></path><path d="M436 170L412 92L309 137Z" fill="#0d0517" stroke="#0d0517"></path><path d="M233 330L302 391L318 279Z" fill="#180c2c" stroke="#180c2c"></path><path d="M318 279L302 391L406 290Z" fill="#160a26" stroke="#160a26"></path><path d="M406 290L478 378L495 279Z" fill="#1b0d32" stroke="#1b0d32"></path><path d="M182 224L318 279L322 216Z" fill="#12071d" stroke="#12071d"></path><path d="M487 121L412 92L436 170Z" fill="#0d0517" stroke="#0d0517"></path><path d="M411 431L478 378L406 290Z" fill="#0f061a" stroke="#0f061a"></path><path d="M490 161L487 121L436 170Z" fill="#150923" stroke="#150923"></path><path d="M302 391L411 431L406 290Z" fill="#0a0414" stroke="#0a0414"></path><path d="M309 137L182 224L322 216Z" fill="#12071d" stroke="#12071d"></path><path d="M181 427L310 461L302 391Z" fill="#130820" stroke="#130820"></path><path d="M302 391L310 461L411 431Z" fill="#0a0414" stroke="#0a0414"></path><path d="M310 461L363 490L411 431Z" fill="#170b29" stroke="#170b29"></path><path d="M411 431L490 495L478 378Z" fill="#180c2c" stroke="#180c2c"></path><path d="M307 0L197 66L309 137Z" fill="#170b29" stroke="#170b29"></path><path d="M309 137L197 66L182 224Z" fill="#0a0414" stroke="#0a0414"></path><path d="M535 0L402 0L412 92Z" fill="#1a0d2f" stroke="#1a0d2f"></path><path d="M412 92L307 0L309 137Z" fill="#1a0d2f" stroke="#1a0d2f"></path><path d="M233 330L181 427L302 391Z" fill="#150923" stroke="#150923"></path><path d="M310 461L280 600L363 490Z" fill="#0d0517" stroke="#0d0517"></path><path d="M136 412L181 427L233 330Z" fill="#180c2c" stroke="#180c2c"></path><path d="M402 0L307 0L412 92Z" fill="#12071d" stroke="#12071d"></path><path d="M490 161L565 83L487 121Z" fill="#160a26" stroke="#160a26"></path><path d="M487 121L535 0L412 92Z" fill="#1a0d2f" stroke="#1a0d2f"></path><path d="M637 221L565 83L490 161Z" fill="#1a0d2f" stroke="#1a0d2f"></path><path d="M637 221L490 161L495 279Z" fill="#0f061a" stroke="#0f061a"></path><path d="M612 439L629 289L478 378Z" fill="#12071d" stroke="#12071d"></path><path d="M478 378L629 289L495 279Z" fill="#1a0d2f" stroke="#1a0d2f"></path><path d="M81 97L99 213L182 224Z" fill="#1a0d2f" stroke="#1a0d2f"></path><path d="M78 300L136 412L233 330Z" fill="#150923" stroke="#150923"></path><path d="M629 289L637 221L495 279Z" fill="#0d0517" stroke="#0d0517"></path><path d="M363 490L490 495L411 431Z" fill="#150923" stroke="#150923"></path><path d="M78 300L233 330L182 224Z" fill="#130820" stroke="#130820"></path><path d="M181 427L182 522L310 461Z" fill="#1b0d32" stroke="#1b0d32"></path><path d="M99 213L78 300L182 224Z" fill="#0a0414" stroke="#0a0414"></path><path d="M586 0L535 0L565 83Z" fill="#1a0d2f" stroke="#1a0d2f"></path><path d="M565 83L535 0L487 121Z" fill="#1a0d2f" stroke="#1a0d2f"></path><path d="M629 289L672 273L637 221Z" fill="#1b0d32" stroke="#1b0d32"></path><path d="M690 0L586 0L565 83Z" fill="#150923" stroke="#150923"></path><path d="M689 372L672 273L629 289Z" fill="#0d0517" stroke="#0d0517"></path><path d="M490 495L612 439L478 378Z" fill="#160a26" stroke="#160a26"></path><path d="M307 0L177 0L197 66Z" fill="#170b29" stroke="#170b29"></path><path d="M197 66L81 97L182 224Z" fill="#12071d" stroke="#12071d"></path><path d="M0 412L124 465L136 412Z" fill="#130820" stroke="#130820"></path><path d="M136 412L124 465L181 427Z" fill="#170b29" stroke="#170b29"></path><path d="M120 0L81 97L197 66Z" fill="#1a0d2f" stroke="#1a0d2f"></path><path d="M99 213L0 287L78 300Z" fill="#130820" stroke="#130820"></path><path d="M124 465L182 522L181 427Z" fill="#0f061a" stroke="#0f061a"></path><path d="M363 490L418 600L490 495Z" fill="#0d0517" stroke="#0d0517"></path><path d="M501 600L594 491L490 495Z" fill="#12071d" stroke="#12071d"></path><path d="M490 495L594 491L612 439Z" fill="#170b29" stroke="#170b29"></path><path d="M612 439L689 372L629 289Z" fill="#0d0517" stroke="#0d0517"></path><path d="M703 128L565 83L637 221Z" fill="#180c2c" stroke="#180c2c"></path><path d="M730 513L689 372L612 439Z" fill="#12071d" stroke="#12071d"></path><path d="M786 198L705 177L672 273Z" fill="#12071d" stroke="#12071d"></path><path d="M672 273L705 177L637 221Z" fill="#0a0414" stroke="#0a0414"></path><path d="M177 0L120 0L197 66Z" fill="#0a0414" stroke="#0a0414"></path><path d="M280 600L418 600L363 490Z" fill="#0f061a" stroke="#0f061a"></path><path d="M705 177L703 128L637 221Z" fill="#1b0d32" stroke="#1b0d32"></path><path d="M182 522L280 600L310 461Z" fill="#130820" stroke="#130820"></path><path d="M0 174L0 287L99 213Z" fill="#130820" stroke="#130820"></path><path d="M78 300L0 412L136 412Z" fill="#180c2c" stroke="#180c2c"></path><path d="M0 174L99 213L81 97Z" fill="#160a26" stroke="#160a26"></path><path d="M0 115L0 174L81 97Z" fill="#170b29" stroke="#170b29"></path><path d="M418 600L501 600L490 495Z" fill="#0f061a" stroke="#0f061a"></path><path d="M75 600L201 600L182 522Z" fill="#180c2c" stroke="#180c2c"></path><path d="M182 522L201 600L280 600Z" fill="#1a0d2f" stroke="#1a0d2f"></path><path d="M75 600L182 522L124 465Z" fill="#160a26" stroke="#160a26"></path><path d="M0 0L0 115L81 97Z" fill="#160a26" stroke="#160a26"></path><path d="M0 287L0 412L78 300Z" fill="#170b29" stroke="#170b29"></path><path d="M703 128L690 0L565 83Z" fill="#0d0517" stroke="#0d0517"></path><path d="M787 303L786 198L672 273Z" fill="#0f061a" stroke="#0f061a"></path><path d="M705 177L786 198L703 128Z" fill="#160a26" stroke="#160a26"></path><path d="M703 128L787 101L690 0Z" fill="#1b0d32" stroke="#1b0d32"></path><path d="M689 372L787 303L672 273Z" fill="#170b29" stroke="#170b29"></path><path d="M825 370L787 303L689 372Z" fill="#0a0414" stroke="#0a0414"></path><path d="M730 513L612 439L594 491Z" fill="#160a26" stroke="#160a26"></path><path d="M501 600L638 600L594 491Z" fill="#1b0d32" stroke="#1b0d32"></path><path d="M120 0L0 0L81 97Z" fill="#12071d" stroke="#12071d"></path><path d="M0 412L0 501L124 465Z" fill="#12071d" stroke="#12071d"></path><path d="M832 0L787 101L900 101Z" fill="#0a0414" stroke="#0a0414"></path><path d="M786 198L787 101L703 128Z" fill="#1b0d32" stroke="#1b0d32"></path><path d="M638 600L730 513L594 491Z" fill="#170b29" stroke="#170b29"></path><path d="M730 513L761 476L689 372Z" fill="#150923" stroke="#150923"></path><path d="M0 501L75 600L124 465Z" fill="#0f061a" stroke="#0f061a"></path><path d="M761 476L825 370L689 372Z" fill="#0d0517" stroke="#0d0517"></path><path d="M787 303L900 214L786 198Z" fill="#12071d" stroke="#12071d"></path><path d="M730 513L805 600L761 476Z" fill="#160a26" stroke="#160a26"></path><path d="M900 399L900 309L825 370Z" fill="#130820" stroke="#130820"></path><path d="M638 600L715 600L730 513Z" fill="#180c2c" stroke="#180c2c"></path><path d="M0 501L0 600L75 600Z" fill="#170b29" stroke="#170b29"></path><path d="M900 101L787 101L786 198Z" fill="#12071d" stroke="#12071d"></path><path d="M787 101L832 0L690 0Z" fill="#160a26" stroke="#160a26"></path><path d="M900 309L787 303L825 370Z" fill="#0d0517" stroke="#0d0517"></path><path d="M900 309L900 214L787 303Z" fill="#0f061a" stroke="#0f061a"></path><path d="M900 399L825 370L761 476Z" fill="#170b29" stroke="#170b29"></path><path d="M900 527L900 399L761 476Z" fill="#160a26" stroke="#160a26"></path><path d="M900 214L900 101L786 198Z" fill="#130820" stroke="#130820"></path><path d="M715 600L805 600L730 513Z" fill="#1b0d32" stroke="#1b0d32"></path><path d="M900 101L900 0L832 0Z" fill="#180c2c" stroke="#180c2c"></path><path d="M805 600L900 527L761 476Z" fill="#170b29" stroke="#170b29"></path><path d="M805 600L900 600L900 527Z" fill="#180c2c" stroke="#180c2c"></path></g></svg>